Coordinates
version=1
nRows=11
nColumns=63
inDegrees=yes

Units are S.I. units (second, meters, Newtons, ...)
If the header above contains a line with 'inDegrees', this indicates whether rotational values are in degrees (yes) or radians (no).

endheader
time	pelvis_tilt	pelvis_list	pelvis_rotation	pelvis_tx	pelvis_ty	pelvis_tz	hip_flexion_r	hip_adduction_r	hip_rotation_r	knee_angle_r	knee_angle_r_beta	ankle_angle_r	subtalar_angle_r	mtp_angle_r	hip_flexion_l	hip_adduction_l	hip_rotation_l	knee_angle_l	knee_angle_l_beta	ankle_angle_l	subtalar_angle_l	mtp_angle_l	L5_S1_Flex_Ext	L5_S1_Lat_Bending	L5_S1_axial_rotation	L4_L5_Flex_Ext	L4_L5_Lat_Bending	L4_L5_axial_rotation	L3_L4_Flex_Ext	L3_L4_Lat_Bending	L3_L4_axial_rotation	L2_L3_Flex_Ext	L2_L3_Lat_Bending	L2_L3_axial_rotation	L1_L2_Flex_Ext	L1_L2_Lat_Bending	L1_L2_axial_rotation	L1_T12_Flex_Ext	L1_T12_Lat_Bending	L1_T12_axial_rotation	Abs_r3	Abs_r2	Abs_r1	Abs_t1	Abs_t2	neck_flexion	neck_bending	neck_rotation	arm_flex_r	arm_add_r	arm_rot_r	elbow_flex_r	pro_sup_r	wrist_flex_r	wrist_dev_r	arm_flex_l	arm_add_l	arm_rot_l	elbow_flex_l	pro_sup_l	wrist_flex_l	wrist_dev_l
1.317073	-0.892441	-0.409231	98.293244	0.193824	0.866518	0.541822	-7.017190	-0.009579	-9.458950	8.039321	0.140313	28.774353	0.114959	0.000000	-6.741572	-0.155751	21.849723	0.725351	0.012660	24.544710	-15.738174	0.000000	-0.134585	0.288152	-1.390479	-0.249939	0.383242	-1.477384	-0.221110	0.700612	-1.477384	-0.153818	0.700612	-1.216669	-0.124976	0.587599	-1.129764	-0.076902	0.446347	-1.042859	-0.961330	3.259628	-7.733428	0.000000	0.000000	27.964420	-4.481874	1.230285	2.260852	-12.956710	135.920219	6.020632	3.868480	2.367967	-8.123253	-2.181863	-11.515049	108.701849	10.641836	24.633509	-7.264552	-14.448088
1.341463	-0.819221	-0.474881	98.228125	0.193892	0.866517	0.541453	-7.003073	0.051722	-9.613998	7.937622	0.138538	28.802926	0.430322	0.000000	-6.709281	-0.226218	21.822898	0.728291	0.012711	24.507459	-15.776127	0.000000	-0.137650	0.297171	-1.394286	-0.255631	0.395237	-1.481429	-0.226146	0.722541	-1.481429	-0.157321	0.722541	-1.220000	-0.127822	0.605991	-1.132857	-0.078653	0.460318	-1.045714	-0.983223	3.361656	-7.754599	0.000000	0.000000	28.006070	-4.558437	0.919197	2.363277	-12.633207	137.917453	5.503126	3.713966	2.769117	-8.155407	-1.615683	-10.869718	116.577738	8.983834	17.320131	-6.655535	-15.750932
1.365854	-0.761471	-0.521729	98.095374	0.194144	0.866626	0.540968	-6.988133	0.099177	-9.703661	7.880307	0.137537	28.801740	0.677194	0.000000	-6.711282	-0.281943	21.714823	0.728752	0.012719	24.418098	-15.813123	0.000000	-0.142287	0.302464	-1.373970	-0.264242	0.402278	-1.459843	-0.233764	0.735412	-1.459843	-0.162620	0.735412	-1.202223	-0.132128	0.616786	-1.116350	-0.081303	0.468518	-1.030477	-1.016344	3.421539	-7.641607	0.000000	0.000000	28.043214	-4.606196	0.541416	2.514594	-12.378282	139.540456	5.069191	3.587902	3.085264	-8.238820	-1.064232	-10.327941	123.849377	7.454981	10.935065	-6.174497	-17.055312
1.390244	-0.701421	-0.550407	97.981271	0.194445	0.866810	0.540426	-6.971561	0.162517	-9.763027	7.875235	0.137449	28.779472	0.802755	0.000000	-6.734150	-0.355212	21.623671	0.725826	0.012668	24.352513	-15.790468	0.000000	-0.147885	0.306785	-1.350122	-0.274638	0.408024	-1.434504	-0.242961	0.745917	-1.434504	-0.169018	0.745917	-1.181357	-0.137326	0.625596	-1.096974	-0.084502	0.475210	-1.012591	-1.056330	3.470414	-7.508973	0.000000	0.000000	28.064108	-4.622957	0.133707	2.719536	-12.154165	141.081701	4.605271	3.746764	3.318691	-8.390525	-0.579650	-9.901105	130.235719	6.139153	5.627794	-5.705668	-18.140104
1.414634	-0.655197	-0.571264	97.843496	0.194836	0.867017	0.539889	-6.933457	0.210268	-9.792636	7.932845	0.138454	28.775746	0.898277	0.000000	-6.769369	-0.418900	21.555505	0.721155	0.012587	24.276271	-15.802062	0.000000	-0.154241	0.308491	-1.320551	-0.286442	0.410293	-1.403085	-0.253403	0.750064	-1.403085	-0.176282	0.750064	-1.155482	-0.143229	0.629074	-1.072947	-0.088134	0.477852	-0.990413	-1.101731	3.489709	-7.344507	0.000000	0.000000	28.080156	-4.568894	-0.266644	2.993807	-11.917347	143.131877	4.074233	3.665164	3.526952	-8.561612	-0.241393	-9.586688	135.238601	5.098164	1.687551	-5.226797	-18.942997
1.439024	-0.617032	-0.593169	97.697096	0.195267	0.867207	0.539443	-6.859167	0.246833	-9.774279	8.056934	0.140620	28.793228	0.933184	0.000000	-6.799510	-0.474868	21.500256	0.718603	0.012542	24.200618	-15.833554	0.000000	-0.160762	0.309119	-1.289170	-0.298551	0.411129	-1.369744	-0.264115	0.751593	-1.369744	-0.183735	0.751593	-1.128024	-0.149283	0.630356	-1.047451	-0.091859	0.478826	-0.966878	-1.148305	3.496820	-7.169979	0.000000	0.000000	28.090928	-4.481880	-0.663228	3.296551	-11.686016	145.206854	3.526299	3.557080	3.724113	-8.701906	-0.029994	-9.377192	138.787761	4.335798	-0.795585	-4.842348	-19.457615
1.463415	-0.583005	-0.624446	97.549653	0.195703	0.867347	0.539124	-6.745394	0.270606	-9.764578	8.234757	0.143724	28.831892	0.966788	0.000000	-6.812020	-0.523948	21.452452	0.718911	0.012547	24.137643	-15.871967	0.000000	-0.165997	0.309580	-1.259218	-0.308273	0.411741	-1.337919	-0.272716	0.752713	-1.337919	-0.189718	0.752713	-1.101816	-0.154145	0.631296	-1.023115	-0.094851	0.479539	-0.944413	-1.185699	3.502031	-7.003392	0.000000	0.000000	28.095113	-4.382792	-1.068987	3.602823	-11.476125	146.974707	3.012086	3.436382	3.990548	-8.788127	0.025147	-9.258024	140.602859	3.871914	-1.556166	-4.601173	-19.644651
1.487805	-0.554808	-0.654364	97.415606	0.196097	0.867445	0.538920	-6.614133	0.276211	-9.852606	8.453786	0.147546	28.911943	1.107946	0.000000	-6.817169	-0.565070	21.430441	0.721639	0.012595	24.084535	-15.921768	0.000000	-0.171352	0.310567	-1.232413	-0.318217	0.413055	-1.309439	-0.281513	0.755114	-1.309439	-0.195838	0.755114	-1.078362	-0.159117	0.633309	-1.001336	-0.097910	0.481069	-0.924310	-1.223947	3.513201	-6.854312	0.000000	0.000000	28.086650	-4.273071	-1.468785	3.891797	-11.306303	148.202441	2.588003	3.283462	4.358597	-8.820650	0.079890	-9.241690	141.613570	3.598032	-1.788743	-4.597336	-19.807888
1.512195	-0.547302	-0.680437	97.282205	0.196481	0.867482	0.538779	-6.480083	0.255993	-9.951320	8.697263	0.151796	29.001175	1.233684	0.000000	-6.824675	-0.583403	21.407814	0.723420	0.012626	24.047697	-15.961204	0.000000	-0.177563	0.309857	-1.205151	-0.329751	0.412110	-1.280473	-0.291717	0.753386	-1.280473	-0.202936	0.753386	-1.054507	-0.164885	0.631860	-0.979185	-0.101459	0.479968	-0.903863	-1.268311	3.505164	-6.702686	0.000000	0.000000	28.061113	-4.149189	-1.879172	4.152219	-11.180784	148.833899	2.302677	3.066336	4.818698	-8.829326	0.014998	-9.331596	140.816221	3.631588	-0.439778	-4.800973	-19.768236
1.536585	-0.567664	-0.701543	97.162126	0.196863	0.867448	0.538688	-6.355658	0.204362	-10.108724	8.952163	0.156245	29.097135	1.374995	0.000000	-6.835000	-0.574109	21.397150	0.723233	0.012623	24.024835	-16.007406	0.000000	-0.185790	0.305598	-1.177401	-0.345030	0.406445	-1.250988	-0.305234	0.743031	-1.250988	-0.212339	0.743031	-1.030225	-0.172524	0.623175	-0.956638	-0.106160	0.473371	-0.883050	-1.327078	3.456985	-6.548349	0.000000	0.000000	28.010871	-4.006398	-2.317253	4.388504	-11.107050	148.684974	2.214518	2.837027	5.342071	-8.790091	-0.172023	-9.556136	137.953345	4.022384	2.635769	-5.214847	-19.548026
1.560976	-0.593238	-0.736773	97.037223	0.197205	0.867377	0.538668	-6.209929	0.135035	-10.298090	9.227046	0.161042	29.180447	1.519673	0.000000	-6.816151	-0.550213	21.296911	0.741451	0.012941	24.046226	-15.940432	0.000000	-0.193389	0.301052	-1.144506	-0.359142	0.400400	-1.216037	-0.317718	0.731978	-1.216037	-0.221024	0.731978	-1.001443	-0.179581	0.613906	-0.929911	-0.110502	0.466330	-0.858379	-1.381356	3.405563	-6.365398	0.000000	0.000000	27.917072	-3.876640	-2.775610	4.614729	-11.128729	147.455007	2.405035	2.791371	5.824084	-8.703649	-0.108345	-9.560138	138.543681	3.873797	2.641898	-5.357847	-19.684173
